<svg xmlns="http://www.w3.org/2000/svg" version="1.1" xmlns:xlink="http://www.w3.org/1999/xlink" xmlns:svgjs="http://svgjs.dev/svgjs" width="1500" height="1500" viewBox="0 0 1500 1500"><rect width="1500" height="1500" fill="#ffffff"></rect><g transform="matrix(0.6666666666666666,0,0,0.6666666666666666,249.39393939393938,560.073429162098)"><svg viewBox="0 0 396 151" data-background-color="#ffffff" preserveAspectRatio="xMidYMid meet" height="571" width="1500" xmlns="http://www.w3.org/2000/svg" xmlns:xlink="http://www.w3.org/1999/xlink"><g id="tight-bounds" transform="matrix(1,0,0,1,0.2400000000000091,-0.16135149774989088)"><svg viewBox="0 0 395.52 151.32270299549978" height="151.32270299549978" width="395.52"><g><svg viewBox="0 0 500.1310153936174 191.3460181564677" height="151.32270299549978" width="395.52"><g transform="matrix(1,0,0,1,0,26.445071973867826)"><svg viewBox="0 0 395.52 138.45587420873204" height="138.45587420873204" width="395.52"><g id="textblocktransform"><svg viewBox="0 0 395.52 138.45587420873204" height="138.45587420873204" width="395.52" id="textblock"><g><svg viewBox="0 0 395.52 94.25278617710582" height="94.25278617710582" width="395.52"><g transform="matrix(1,0,0,1,0,0)"><svg width="395.52" viewBox="2.4 -36.5 208.32999999999998 49.65" height="94.25278617710582" data-palette-color="#ec4104"><path d="M20.2 0.6L20.2 0.6Q14.6 0.6 10.63-1.48 6.65-3.55 4.53-7.43 2.4-11.3 2.4-16.7L2.4-16.7Q2.4-22 4.65-26.05 6.9-30.1 10.93-32.4 14.95-34.7 20.15-34.7L20.15-34.7Q23.25-34.7 25.28-34.33 27.3-33.95 28.85-33.95L28.85-33.95Q30.2-33.95 31.45-34.25L31.45-34.25Q31.45-32.45 31.63-30.23 31.8-28 32.05-26.45L32.05-26.45 30.7-25.85Q29.7-29.05 26.98-30.73 24.25-32.4 20.1-32.4L20.1-32.4Q16.35-32.4 13.55-30.55 10.75-28.7 9.2-25.38 7.65-22.05 7.65-17.55L7.65-17.55Q7.65-12.85 9.25-9.33 10.85-5.8 13.7-3.83 16.55-1.85 20.35-1.85L20.35-1.85Q24.85-1.85 27.9-3.73 30.95-5.6 32.05-9L32.05-9 33.4-8.4Q32.95-6.8 32.65-5 32.35-3.2 32.25-1.7L32.25-1.7Q25.95 0.6 20.2 0.6ZM43.65-17.6L43.65-17.6Q43.65-13.1 43.72-10.25 43.8-7.4 43.9-5.75 44-4.1 44.07-3.38 44.15-2.65 44.2-2.4L44.2-2.4Q44.25-2.15 44.9-1.9 45.55-1.65 46.37-1.5 47.2-1.35 47.7-1.3L47.7-1.3 47.55 0.15Q46.35 0.05 44.75 0.03 43.15 0 41.85 0L41.85 0Q40.6 0 38.87 0.03 37.15 0.05 35.95 0.15L35.95 0.15 36.1-1.3Q36.65-1.35 37.42-1.5 38.2-1.65 38.85-1.9 39.5-2.15 39.55-2.4L39.55-2.4Q39.55-2.4 39.6-3.13 39.65-3.85 39.72-5.63 39.8-7.4 39.85-10.53 39.9-13.65 39.9-18.5L39.9-18.5Q39.9-23.3 39.85-26.25 39.8-29.2 39.7-30.75 39.6-32.3 39.55-32.83 39.5-33.35 39.5-33.35L39.5-33.35 36.3-34.3 36.2-35.6Q37.1-35.6 38.32-35.73 39.55-35.85 40.75-36.08 41.95-36.3 42.8-36.5L42.8-36.5 43.75-36.05Q43.75-36.05 43.7-31.4 43.65-26.75 43.65-17.6ZM56.65-22.95L56.65-22.95 57.6-22.5Q57.6-21.85 57.57-20.5 57.55-19.15 57.55-17.53 57.55-15.9 57.52-14.28 57.5-12.65 57.5-11.45L57.5-11.45Q57.5-7.8 57.62-5.85 57.75-3.9 57.87-3.15 58-2.4 58-2.4L58-2.4Q58.05-2.15 58.72-1.9 59.4-1.65 60.22-1.5 61.05-1.35 61.55-1.3L61.55-1.3 61.4 0.15Q60.2 0.05 58.57 0.03 56.95 0 55.65 0L55.65 0Q54.4 0 52.65 0.03 50.9 0.05 49.7 0.15L49.7 0.15 49.85-1.3Q50.4-1.35 51.2-1.5 52-1.65 52.65-1.9 53.3-2.15 53.35-2.4L53.35-2.4Q53.35-2.4 53.45-3.15 53.55-3.9 53.65-5.85 53.75-7.8 53.75-11.45L53.75-11.45Q53.75-15.1 53.65-16.88 53.55-18.65 53.45-19.23 53.35-19.8 53.35-19.8L53.35-19.8 50.15-20.75 50.05-22.05Q50.95-22.05 52.17-22.18 53.4-22.3 54.6-22.53 55.8-22.75 56.65-22.95ZM55.5-28.15L55.5-28.15Q54.4-28.15 53.65-28.93 52.9-29.7 52.9-30.85L52.9-30.85Q52.9-31.95 53.65-32.7 54.4-33.45 55.5-33.45L55.5-33.45Q56.6-33.45 57.35-32.7 58.1-31.95 58.1-30.85L58.1-30.85Q58.1-29.7 57.35-28.93 56.6-28.15 55.5-28.15ZM103.39-1.3L103.39-1.3 103.24 0.15Q102.04 0.05 100.59 0.03 99.14 0 97.84 0L97.84 0Q96.59 0 95.02 0.03 93.44 0.05 92.24 0.15L92.24 0.15 92.39-1.3Q92.94-1.35 93.64-1.5 94.34-1.65 94.92-1.9 95.49-2.15 95.54-2.4L95.54-2.4Q95.54-2.4 95.64-3.15 95.74-3.9 95.84-5.85 95.94-7.8 95.94-11.45L95.94-11.45 95.94-16.7Q95.94-18.55 94.87-19.23 93.79-19.9 92.19-19.9L92.19-19.9Q90.44-19.9 88.49-19.3 86.54-18.7 85.29-18.2L85.29-18.2 85.29-11.45Q85.29-7.8 85.42-5.85 85.54-3.9 85.67-3.15 85.79-2.4 85.79-2.4L85.79-2.4Q85.84-2.15 86.42-1.9 86.99-1.65 87.74-1.5 88.49-1.35 88.99-1.3L88.99-1.3 88.84 0.15Q87.64 0.05 86.19 0.03 84.74 0 83.44 0L83.44 0Q82.19 0 80.62 0.03 79.04 0.05 77.84 0.15L77.84 0.15 77.99-1.3Q78.54-1.35 79.24-1.5 79.94-1.65 80.52-1.9 81.09-2.15 81.14-2.4L81.14-2.4Q81.14-2.4 81.24-3.15 81.34-3.9 81.44-5.85 81.54-7.8 81.54-11.45L81.54-11.45 81.54-16.7Q81.54-18.55 80.47-19.23 79.39-19.9 77.79-19.9L77.79-19.9Q76.64-19.9 75.32-19.58 73.99-19.25 72.84-18.85 71.69-18.45 70.94-18.1L70.94-18.1 70.94-11.45Q70.94-7.8 71.09-5.85 71.24-3.9 71.37-3.15 71.49-2.4 71.49-2.4L71.49-2.4Q71.54-2.15 72.12-1.9 72.69-1.65 73.44-1.5 74.19-1.35 74.69-1.3L74.69-1.3 74.54 0.15Q73.34 0.05 71.89 0.03 70.44 0 69.14 0L69.14 0Q67.89 0 66.32 0.03 64.74 0.05 63.54 0.15L63.54 0.15 63.69-1.3Q64.24-1.35 64.94-1.5 65.64-1.65 66.22-1.9 66.79-2.15 66.84-2.4L66.84-2.4Q66.84-2.4 66.94-3.15 67.04-3.9 67.12-5.85 67.19-7.8 67.19-11.45L67.19-11.45Q67.19-15.1 67.09-16.88 66.99-18.65 66.89-19.23 66.79-19.8 66.79-19.8L66.79-19.8 63.59-20.75 63.49-22.05Q64.39-22.05 65.62-22.18 66.84-22.3 68.04-22.53 69.24-22.75 70.09-22.95L70.09-22.95 71.04-22.5Q71.04-22.5 71.02-21.73 70.99-20.95 70.99-20.1L70.99-20.1Q71.99-20.7 73.54-21.38 75.09-22.05 76.84-22.53 78.59-23 80.19-23L80.19-23Q81.89-23 83.22-22.35 84.54-21.7 85.04-20.1L85.04-20.1Q86.04-20.7 87.67-21.38 89.29-22.05 91.12-22.53 92.94-23 94.59-23L94.59-23Q96.74-23 98.22-21.98 99.69-20.95 99.69-18.25L99.69-18.25 99.69-11.45Q99.69-7.8 99.82-5.85 99.94-3.9 100.07-3.15 100.19-2.4 100.19-2.4L100.19-2.4Q100.24-2.15 100.82-1.9 101.39-1.65 102.14-1.5 102.89-1.35 103.39-1.3ZM117.49 0.45L117.49 0.45Q114.74 0.45 112.24-0.05 109.74-0.55 107.94-1.25L107.94-1.25Q107.94-1.25 108.04-2.88 108.14-4.5 108.24-8.25 108.34-12 108.34-18.45L108.34-18.45Q108.34-23.3 108.29-26.25 108.24-29.2 108.14-30.75 108.04-32.3 107.99-32.83 107.94-33.35 107.94-33.35L107.94-33.35 104.74-34.3 104.64-35.6Q105.54-35.6 106.77-35.73 107.99-35.85 109.19-36.08 110.39-36.3 111.24-36.5L111.24-36.5 112.19-36.05Q112.19-36.05 112.14-31.98 112.09-27.9 112.09-20.1L112.09-20.1Q113.99-21.55 116.09-22.28 118.19-23 120.19-23L120.19-23Q122.54-23 124.54-21.88 126.54-20.75 127.77-18.38 128.99-16 128.99-12.15L128.99-12.15Q128.99-7.85 127.37-5.05 125.74-2.25 123.12-0.9 120.49 0.45 117.49 0.45ZM116.64-2.2L116.64-2.2Q119.74-2.2 121.49-3.63 123.24-5.05 123.99-7.28 124.74-9.5 124.74-11.85L124.74-11.85Q124.74-15.4 123.34-17.63 121.94-19.85 118.24-19.85L118.24-19.85Q116.49-19.85 114.69-19.35 112.89-18.85 112.04-18.3L112.04-18.3Q112.04-13 112.12-9.8 112.19-6.6 112.29-5.03 112.39-3.45 112.44-3.05L112.44-3.05Q113.59-2.6 114.64-2.4 115.69-2.2 116.64-2.2ZM142.24-3.45L142.24-3.45Q142.29-2.95 143.04-2.58 143.79-2.2 144.91-2 146.04-1.8 147.09-1.8L147.09-1.8Q149.69-1.8 151.79-2.15 153.89-2.5 155.49-3.93 157.09-5.35 158.09-8.55L158.09-8.55 159.44-7.95Q159.14-7.05 158.89-5.5 158.64-3.95 158.46-2.43 158.29-0.9 158.24 0L158.24 0 138.59 0Q136.74 0 135.46 0.03 134.19 0.05 132.59 0.15L132.59 0.15 132.44-1.3Q134.69-1.75 135.74-2.13 136.79-2.5 136.89-3.45L136.89-3.45Q136.89-3.45 136.99-4.63 137.09-5.8 137.21-8.75 137.34-11.7 137.34-17.1L137.34-17.1Q137.34-22.5 137.24-25.48 137.14-28.45 137.04-29.63 136.94-30.8 136.94-30.8L136.94-30.8Q136.84-31.75 135.96-32.13 135.09-32.5 132.84-32.95L132.84-32.95 132.99-34.4Q134.59-34.35 136.21-34.3 137.84-34.25 139.69-34.25L139.69-34.25Q141.59-34.25 143.11-34.3 144.64-34.35 146.19-34.4L146.19-34.4 146.34-32.95Q144.09-32.5 143.21-32.13 142.34-31.75 142.24-30.8L142.24-30.8Q142.24-30.8 142.14-29.63 142.04-28.45 141.94-25.48 141.84-22.5 141.84-17.1L141.84-17.1Q141.84-11.7 141.94-8.75 142.04-5.8 142.14-4.63 142.24-3.45 142.24-3.45ZM184.54-12.15L184.54-12.15Q184.54-9.75 183.86-7.5 183.19-5.25 181.79-3.45 180.39-1.65 178.11-0.6 175.84 0.45 172.59 0.45L172.59 0.45Q166.99 0.45 164.49-2.53 161.99-5.5 161.99-10.3L161.99-10.3Q161.99-12.7 162.66-14.95 163.34-17.2 164.74-19.03 166.14-20.85 168.44-21.93 170.74-23 173.94-23L173.94-23Q177.69-23 180.01-21.63 182.34-20.25 183.44-17.8 184.54-15.35 184.54-12.15ZM180.24-10.3L180.24-10.3Q180.24-12.85 179.66-15.2 179.09-17.55 177.61-19.05 176.14-20.55 173.39-20.55L173.39-20.55Q171.19-20.55 169.79-19.53 168.39-18.5 167.64-17 166.89-15.5 166.59-14 166.29-12.5 166.29-11.5L166.29-11.5Q166.29-9.05 166.94-6.88 167.59-4.7 169.09-3.33 170.59-1.95 173.14-1.95L173.14-1.95Q175.14-1.95 176.51-2.83 177.89-3.7 178.71-5.05 179.54-6.4 179.89-7.83 180.24-9.25 180.24-10.3ZM204.18-21.45L204.18-21.45Q204.48-21.9 205.16-22.7 205.83-23.5 206.66-24.15 207.48-24.8 208.18-24.8L208.18-24.8Q208.43-24.8 208.96-24.28 209.48-23.75 210.01-22.95 210.53-22.15 210.73-21.3L210.73-21.3 209.98-20.35Q209.63-20.55 209.06-20.68 208.48-20.8 207.78-20.8L207.78-20.8Q207.28-20.8 206.68-20.68 206.08-20.55 205.48-20.25L205.48-20.25Q206.33-19.25 206.78-17.82 207.23-16.4 207.23-14.4L207.23-14.4Q207.23-12.45 206.31-10.55 205.38-8.65 203.38-7.4 201.38-6.15 198.13-6.15L198.13-6.15Q196.98-6.15 195.93-6.3L195.93-6.3Q195.08-5.2 194.58-4.38 194.08-3.55 194.08-3L194.08-3Q194.08-2.35 194.86-2.1 195.63-1.85 197.33-1.85L197.33-1.85 201.08-1.85Q205.88-1.85 208.21-0.25 210.53 1.35 210.53 4.25L210.53 4.25Q210.53 6.3 208.93 8.38 207.33 10.45 204.23 11.8 201.13 13.15 196.63 13.15L196.63 13.15Q194.38 13.15 192.31 12.65 190.23 12.15 188.88 11.1 187.53 10.05 187.53 8.45L187.53 8.45Q187.53 7.05 188.78 5.15 190.03 3.25 192.68 1.1L192.68 1.1Q191.13 0.75 190.33 0.1 189.53-0.55 189.53-1.35L189.53-1.35Q189.53-2.35 190.86-3.75 192.18-5.15 194.03-6.65L194.03-6.65Q191.63-7.4 190.31-9.3 188.98-11.2 188.98-14.7L188.98-14.7Q188.98-16.65 189.93-18.55 190.88-20.45 192.91-21.7 194.93-22.95 198.13-22.95L198.13-22.95Q199.93-22.95 201.48-22.63 203.03-22.3 204.18-21.45ZM202.93-13.9L202.93-13.9Q202.93-15.55 202.58-17.15 202.23-18.75 201.21-19.83 200.18-20.9 198.18-20.9L198.18-20.9Q196.63-20.9 195.63-20.2 194.63-19.5 194.13-18.48 193.63-17.45 193.43-16.43 193.23-15.4 193.23-14.7L193.23-14.7Q193.23-13.2 193.66-11.7 194.08-10.2 195.13-9.2 196.18-8.2 197.98-8.2L197.98-8.2Q199.93-8.2 200.98-9.2 202.03-10.2 202.46-11.55 202.88-12.9 202.93-13.9ZM191.73 6.8L191.73 6.8Q191.73 8.65 193.13 9.9 194.53 11.15 197.43 11.15L197.43 11.15Q200.13 11.15 202.13 10.13 204.13 9.1 205.23 7.58 206.33 6.05 206.33 4.65L206.33 4.65Q206.33 3.25 205.13 2.25 203.93 1.25 200.98 1.25L200.98 1.25 194.23 1.25Q192.98 2.65 192.36 4.08 191.73 5.5 191.73 6.8Z" opacity="1" transform="matrix(1,0,0,1,0,0)" fill="#000000" class="wordmark-text-0" data-fill-palette-color="primary" id="text-0"></path></svg></g></svg></g><g transform="matrix(1,0,0,1,163.310208,116.50360692665225)"><svg viewBox="0 0 232.209792 21.9522672820798" height="21.9522672820798" width="232.209792"><g transform="matrix(1,0,0,1,0,0)"><svg width="232.209792" viewBox="0.65 -33.4 359.61 34" height="21.9522672820798" data-palette-color="#ec4104"><path d="M21.6 0L18.65-9.15 6.45-9.15 3.55 0 0.65 0 10.55-30.65 16.65-30.65 26.55 0 21.6 0ZM7.25-11.6L17.85-11.6 12.55-28.25 7.25-11.6ZM44.8-31.7L49.85-32.35 49.85 0 46.8 0 45.35-2.7Q42.6 0.6 38.35 0.6L38.35 0.6Q29.3 0.6 29.3-11.8L29.3-11.8Q29.3-24.6 38.95-24.6L38.95-24.6Q42-24.6 44.8-22.8L44.8-22.8 44.8-31.7ZM39.75-1.9Q42.75-1.9 44.8-4.7L44.8-4.7 44.8-20.25Q42.65-21.85 40.15-21.85L40.15-21.85Q37.3-21.85 35.82-19.3 34.35-16.75 34.35-11.8L34.35-11.8Q34.35-6.9 35.72-4.4 37.1-1.9 39.75-1.9L39.75-1.9ZM73.55-24L76.44-24 68.09 0 62.55 0 54.34-24 59.39-24 66.39-2.55 73.55-24ZM99.74-11.7L84.24-11.7 84.24-11.6Q84.24-6.3 85.52-4.1 86.79-1.9 89.89-1.9L89.89-1.9Q94.99-1.9 95.24-7.15L95.24-7.15 99.39-6.95Q99.04-3.45 96.84-1.43 94.64 0.6 89.74 0.6L89.74 0.6Q84.09 0.6 81.64-2.53 79.19-5.65 79.19-12L79.19-12Q79.19-17.7 81.52-21.15 83.84-24.6 89.69-24.6L89.69-24.6Q95.34-24.6 97.54-21.18 99.74-17.75 99.74-12.2L99.74-12.2 99.74-11.7ZM89.59-22.1Q86.94-22.1 85.74-20.15 84.54-18.2 84.29-14.2L84.29-14.2 94.84-14.2Q94.69-18.1 93.52-20.1 92.34-22.1 89.59-22.1L89.59-22.1ZM118.44-24.6Q126.14-24.6 126.14-16.95L126.14-16.95 126.14 0 121.09 0 121.09-16.55Q121.09-19.25 120.14-20.53 119.19-21.8 117.14-21.8L117.14-21.8Q114.09-21.8 111.14-19.5L111.14-19.5 111.14 0 106.09 0 106.09-24 108.29-24 110.29-21.5Q112.09-22.9 114.27-23.75 116.44-24.6 118.44-24.6L118.44-24.6ZM144.44-3.15L145.09-0.85Q142.44 0.6 139.99 0.6L139.99 0.6Q137.49 0.6 136.26-0.33 135.04-1.25 134.74-2.55 134.44-3.85 134.44-5.75L134.44-5.75 134.44-21.45 130.54-21.45 130.54-24 134.44-24 134.44-27.9 139.54-29.8 139.54-24 144.64-24 144.64-21.45 139.54-21.45 139.54-5.15Q139.54-3.5 139.96-2.88 140.39-2.25 141.39-2.25L141.39-2.25Q142.79-2.25 144.44-3.15L144.44-3.15ZM163.59-24L168.64-24 168.64 0 165.34 0 163.94-3Q160.59 0.6 156.09 0.6L156.09 0.6Q152.19 0.6 150.34-1.43 148.49-3.45 148.49-7.15L148.49-7.15 148.49-24 153.54-24 153.54-7.65Q153.54-2.05 157.94-2.05L157.94-2.05Q161.19-2.05 163.59-5.2L163.59-5.2 163.59-24ZM181.38-19.45Q182.53-21.6 184.61-22.9 186.68-24.2 189.58-24.2L189.58-24.2 189.58-20.5Q181.88-20.5 181.88-14.5L181.88-14.5 181.83-14.5 181.83 0 176.78 0 176.78-24 178.98-24 181.38-19.45ZM212.53-11.7L197.03-11.7 197.03-11.6Q197.03-6.3 198.31-4.1 199.58-1.9 202.68-1.9L202.68-1.9Q207.78-1.9 208.03-7.15L208.03-7.15 212.18-6.95Q211.83-3.45 209.63-1.43 207.43 0.6 202.53 0.6L202.53 0.6Q196.88 0.6 194.43-2.53 191.98-5.65 191.98-12L191.98-12Q191.98-17.7 194.31-21.15 196.63-24.6 202.48-24.6L202.48-24.6Q208.13-24.6 210.33-21.18 212.53-17.75 212.53-12.2L212.53-12.2 212.53-11.7ZM202.38-22.1Q199.73-22.1 198.53-20.15 197.33-18.2 197.08-14.2L197.08-14.2 207.63-14.2Q207.48-18.1 206.31-20.1 205.13-22.1 202.38-22.1L202.38-22.1ZM248.13 0L245.18-9.15 232.98-9.15 230.08 0 227.18 0 237.08-30.65 243.18-30.65 253.08 0 248.13 0ZM233.78-11.6L244.38-11.6 239.08-28.25 233.78-11.6ZM282.07-24L285.07-24 278.82 0 273.27 0 269.42-17.05 265.12 0 259.52 0 254.22-24 259.32-24 263.42-3.9 268.27-24 271.22-24 271.17-23.9 271.32-24 272.97-24 277.17-3.8 282.07-24ZM294.52 0.6Q291.47 0.6 289.7-1.07 287.92-2.75 287.92-5.65L287.92-5.65Q287.92-8.75 290.15-10.53 292.37-12.3 296.92-13.1L296.92-13.1 302.47-14 302.47-16.45Q302.47-22.1 298.17-22.1L298.17-22.1Q295.62-22.1 294.47-20.65 293.32-19.2 293.17-16.2L293.17-16.2 288.97-16.65Q289.27-20.6 291.37-22.6 293.47-24.6 298.27-24.6L298.27-24.6Q302.92-24.6 305.22-22.53 307.52-20.45 307.52-16.25L307.52-16.25 307.52 0 304.32 0 302.77-3.5Q301.22-1.5 299.07-0.45 296.92 0.6 294.52 0.6L294.52 0.6ZM296.32-2.05Q298.02-2.05 299.7-3.05 301.37-4.05 302.47-5.4L302.47-5.4 302.47-11.95 297.57-11Q295.07-10.45 293.8-9.25 292.52-8.05 292.52-6L292.52-6Q292.52-4.2 293.55-3.13 294.57-2.05 296.32-2.05L296.32-2.05ZM317.72-27.15Q316.42-27.15 315.52-28.08 314.62-29 314.62-30.25L314.62-30.25Q314.62-31.55 315.52-32.48 316.42-33.4 317.72-33.4L317.72-33.4Q319.02-33.4 319.94-32.48 320.87-31.55 320.87-30.25L320.87-30.25Q320.87-29 319.92-28.08 318.97-27.15 317.72-27.15L317.72-27.15ZM320.12-24L320.12 0 315.17 0 315.17-24 320.12-24ZM338.97-3.15L339.62-0.85Q336.97 0.6 334.52 0.6L334.52 0.6Q332.02 0.6 330.79-0.33 329.57-1.25 329.27-2.55 328.97-3.85 328.97-5.75L328.97-5.75 328.97-21.45 325.07-21.45 325.07-24 328.97-24 328.97-27.9 334.07-29.8 334.07-24 339.17-24 339.17-21.45 334.07-21.45 334.07-5.15Q334.07-3.5 334.49-2.88 334.92-2.25 335.92-2.25L335.92-2.25Q337.32-2.25 338.97-3.15L338.97-3.15ZM353.21-13.8Q356.91-12.8 358.59-11.25 360.26-9.7 360.26-6.75L360.26-6.75Q360.26-3.35 357.89-1.38 355.51 0.6 351.16 0.6L351.16 0.6Q346.46 0.6 344.16-1.33 341.86-3.25 341.36-6.9L341.36-6.9 345.51-7.4Q345.76-4.8 347.16-3.35 348.56-1.9 351.16-1.9L351.16-1.9Q353.26-1.9 354.61-3.05 355.96-4.2 355.96-5.7L355.96-5.7Q355.96-7.2 354.76-8.1 353.56-9 350.81-9.7L350.81-9.7 348.41-10.4Q345.21-11.25 343.51-12.9 341.81-14.55 341.81-17.55L341.81-17.55Q341.81-20.8 344.21-22.7 346.61-24.6 350.86-24.6L350.86-24.6Q355.31-24.6 357.46-22.73 359.61-20.85 360.06-17.25L360.06-17.25 355.91-16.9Q355.66-19.35 354.39-20.73 353.11-22.1 350.86-22.1L350.86-22.1Q348.51-22.1 347.31-21.15 346.11-20.2 346.11-18.65L346.11-18.65Q346.11-16.95 347.29-16.05 348.46-15.15 351.01-14.45L351.01-14.45 353.21-13.8Z" opacity="1" transform="matrix(1,0,0,1,0,0)" fill="#000000" class="slogan-text-1" data-fill-palette-color="secondary" id="text-1"></path></svg></g></svg></g></svg></g></svg></g><g transform="matrix(1,0,0,1,417.77082074954643,0)"><svg viewBox="0 0 82.36019464407099 191.3460181564677" height="191.3460181564677" width="82.36019464407099"><g><svg xmlns="http://www.w3.org/2000/svg" xmlns:xlink="http://www.w3.org/1999/xlink" version="1.1" x="0" y="0" viewBox="29.089 1.4170000000000016 41.82271860103144 97.166" enable-background="new 0 0 100 100" xml:space="preserve" height="191.3460181564677" width="82.36019464407099" class="icon-icon-0" data-fill-palette-color="accent" id="icon-0"><g fill="#090909" data-fill-palette-color="accent"><g fill="#090909" data-fill-palette-color="accent"><path d="M70.403 44.317c-0.197-0.344-0.465-0.656-0.801-0.91L36.464 18.372c-0.301-0.229-0.637-0.372-0.98-0.473l0.002-16.482h-1.688l-0.002 16.516c-0.602 0.177-1.168 0.49-1.574 1.03-1.008 1.335-0.744 3.234 0.592 4.243l0.982 0.742v4.968c0 10.065 5.52 18.85 13.676 23.538l-0.006 1.47-8.727-2.399c-0.9-0.247-1.865-0.126-2.674 0.337-0.809 0.464-1.402 1.231-1.645 2.134l-0.715 2.631L29.089 73.16l3.117 0.692c0.381 0.104 0.775 0.141 1.17 0.126 0.043 0.003 0.088 0 0.129 0.001 0.004 0 0.006 0 0.012 0 1.584 0.046 3.057-0.988 3.486-2.589l3.277-12.167 9.582 2.531c0.721 0.197 0.422 1.283-0.299 1.084l-2.73-0.715L31.591 88.879c-0.959 1.685-0.371 3.825 1.312 4.784 0.547 0.312 1.145 0.461 1.732 0.461 1.219 0 2.404-0.637 3.051-1.771l18.133-31.825c0.15-0.267 0.252-0.548 0.328-0.831 0.18-0.499 0.299-1.049 0.301-1.68l0.01-2.354c0.656 0.109 1.316 0.215 1.988 0.276 0.158 0.704 0.529 1.368 1.16 1.812 0.189 0.134 0.402 0.183 0.607 0.267L60.21 98.583h1.688l0.004-40.34c0.75-0.141 1.451-0.557 1.924-1.232l6.539-9.294c0.014-0.018 0.031-0.035 0.047-0.062C71.103 46.618 71.056 45.309 70.403 44.317zM47.479 50.487c-7.191-4.506-11.996-12.479-11.996-21.571v-3.692l12.033 9.092L47.479 50.487zM58.872 53.528c-0.156 0.221-0.229 0.478-0.316 0.729-0.707-0.065-1.4-0.176-2.092-0.299l0.037-11.227-1.062-0.806c-0.604-0.45 0.066-1.355 0.67-0.903l7.607 5.625L58.872 53.528z" fill="#000000" data-fill-palette-color="accent"></path><path d="M50.821 27.062c0.082 0.4 0.434 0.679 0.828 0.679 0.051 0 0.105-0.006 0.158-0.016 0.375 0.716 0.883 1.339 1.551 1.785 0.234 0.156 0.482 0.29 0.754 0.402 2.65 1.103 5.898-0.617 7.23-3.827 0.008-0.02 0.162 0.053 0.162 0.053 0.146 0.109 0.326 0.168 0.506 0.168 0.074 0 0.148-0.01 0.221-0.03 0.254-0.069 0.457-0.249 0.559-0.489 1.408-3.391 0.496-7.027-2.168-8.646-1.514-0.919-3.438-1.062-5.232-0.396-0.914 0.329-1.789 0.87-2.6 1.608-0.186 0.169-0.287 0.413-0.275 0.663 0.012 0.252 0.135 0.484 0.338 0.637l0.295 0.22c-0.59 0.631-1.086 1.374-1.436 2.216-0.568 1.373-0.697 2.799-0.451 4.074C50.94 26.333 50.747 26.687 50.821 27.062zM54.759 28.354c-0.492-0.206-0.887-0.551-1.197-0.979l5.82-1.157C58.28 28.064 56.343 29.01 54.759 28.354zM53.269 22.74c0.301-0.721 0.73-1.338 1.24-1.847l2.889 2.166 0.273 1.778-4.75 0.945C52.751 24.837 52.845 23.767 53.269 22.74z" fill="#000000" data-fill-palette-color="accent"></path></g></g></svg></g></svg></g></svg></g><defs></defs></svg><rect width="395.52" height="151.32270299549978" fill="none" stroke="none" visibility="hidden"></rect></g></svg></g></svg>